HIERARCHY
ROOT Hips
{
	OFFSET 0.00000 0.00000 0.00000
	CHANNELS 6 Xposition Yposition Zposition Yrotation Zrotation Xrotation 
	JOINT Lumbar
	{
		OFFSET 0 0 0
		CHANNELS 3 Zrotation Xrotation Yrotation
		JOINT Neck
		{
			OFFSET 0.00 0.2701 0.00
			CHANNELS 3 Zrotation Xrotation Yrotation
			End Site
			{
				OFFSET 0.00 0.1379 0.00
			}
		}
		JOINT RightShoulder
		{
			OFFSET 0.0119 0.2289 0.1181
			CHANNELS 3 Zrotation Xrotation Yrotation
			JOINT RightElbow
			{
				OFFSET 0.00 -0.1475 0.00
				CHANNELS 2 Zrotation Yrotation
				JOINT RightWrist
				{
					OFFSET 0.00 -0.1605 0.00
					CHANNELS 2 Zrotation Xrotation
					End Site
					{
						OFFSET 0.0040 -0.1068 0.0006
					}
				}
			}
		}
		JOINT LeftShoulder
		{
			OFFSET 0.0119 0.2289 -0.1181
			CHANNELS 3 Zrotation Xrotation Yrotation
			JOINT LeftElbow
			{
				OFFSET 0.00 -0.1475 0.00
				CHANNELS 2 Zrotation Yrotation
				JOINT LeftWrist
				{
					OFFSET 0.00 -0.1605 0.00
					CHANNELS 2 Zrotation Xrotation
					End Site
					{
						OFFSET 0.0040 -0.1068 -0.0006
					}
				}
			}
		}
	}
	JOINT RightHip
	{
		OFFSET 0.0316 -0.0424 0.0458
		CHANNELS 3 Zrotation Xrotation Yrotation
		JOINT RightKnee
		{
			OFFSET 0.00 -0.2438 0.00
			CHANNELS 1 Zrotation
			JOINT RightAnkle
			{
				OFFSET 0.00 -0.2449 0.00
				CHANNELS 3 Zrotation Xrotation Yrotation
				End Site
				{
					OFFSET 0.1237 -0.0542 0.0051
				}
			}
		}
	}
	JOINT LeftHip
	{
		OFFSET 0.0316 -0.0424 -0.0458
		CHANNELS 3 Zrotation Xrotation Yrotation
		JOINT LeftKnee
		{
			OFFSET 0.00 -0.2438 0.00
			CHANNELS 1 Zrotation
			JOINT LeftAnkle
			{
				OFFSET 0.00 -0.2449 0.00
				CHANNELS 3 Zrotation Xrotation Yrotation
				End Site
				{
					OFFSET 0.1237 -0.0542 -0.0051
				}
			}
		}
	}
}
MOTION
Frames: 30
Frame Time: 0.02
-0.18376 -0.57288 0.11378 26.17957 41.43522 -5.38231 -9.34544 1.40391 -12.65683 -44.80569 -11.94607 -2.11994 -51.91264 -29.4955 -3.91494 75.70244 91.94859 15.27178 -0.77673 24.27003 56.12128 -28.97338 49.67217 -96.57568 5.96635 -4.45493 107.96605 -12.63442 -12.28956 -83.05979 -13.41085 -2.74985 -3.91112 126.40143 -12.25681 -13.963 -122.35009 -23.85545 -6.38898 -0.37804
-0.18369 -0.57284 0.11364 26.20359 41.48151 -5.60965 -9.09678 1.61056 -12.55306 -44.83504 -11.80978 -2.11994 -51.54226 -29.23204 -4.33548 76.15212 91.11687 13.27148 -0.63974 21.18498 56.24253 -26.03709 49.37196 -95.53463 5.38729 -4.39898 107.8069 -12.6704 -11.83903 -82.90844 -13.44325 -2.64944 -3.85744 126.30071 -11.62337 -13.30695 -121.49816 -22.63509 -4.81043 0.37484
-0.18364 -0.57276 0.11346 26.22539 41.41533 -5.86044 -8.75197 1.87456 -12.43614 -44.85349 -11.69688 -2.11994 -50.97012 -28.95777 -4.82622 76.48129 90.35409 11.07654 -0.43066 17.9435 56.2208 -23.03555 48.97613 -94.46057 4.77223 -4.27667 107.71244 -12.80454 -11.44323 -82.78839 -13.46741 -2.54715 -3.80131 126.1818 -10.80561 -12.5023 -120.40884 -21.41651 -3.97622 0.77724
-0.18357 -0.57269 0.1133 26.2423 41.39569 -6.09594 -8.44984 2.10932 -12.31451 -44.87785 -11.56066 -2.11994 -50.47766 -28.69824 -5.25717 76.83675 89.53725 8.98725 -0.23933 14.78662 56.25151 -20.08437 48.6223 -93.4113 4.18123 -4.19332 107.59066 -12.88435 -11.02088 -82.65671 -13.49534 -2.44813 -3.74784 126.06744 -9.95188 -11.67523 -119.41829 -20.23051 -2.80368 1.33886
-0.18353 -0.57263 0.11313 26.28408 41.39683 -6.35126 -8.15392 2.35818 -12.23674 -44.90034 -11.47535 -2.11994 -50.03311 -28.39545 -5.80286 77.31403 88.7947 6.80575 -0.10699 11.56353 56.33396 -17.03719 48.27224 -92.31334 3.55162 -4.07545 107.45865 -13.00251 -10.59983 -82.51712 -13.52364 -2.33882 -3.68786 125.97094 -9.5742 -11.20642 -118.46642 -18.89319 -1.59546 1.91687
-0.18344 -0.57256 0.11298 26.27426 41.32855 -6.57117 -7.82324 2.59115 -12.06527 -44.92258 -11.29091 -2.11994 -49.44157 -28.18111 -6.12766 77.50707 87.92716 4.78287 0.15861 8.44688 56.27416 -14.18059 47.89227 -91.31292 2.99706 -4.01285 107.36309 -13.0654 -10.1924 -82.39969 -13.54965 -2.25079 -3.64098 125.82976 -8.19563 -9.97983 -117.37644 -17.87416 -0.65296 2.37083
-0.18319 -0.57246 0.11289 26.11314 41.08163 -6.68246 -7.39803 2.76474 -11.63468 -44.95605 -10.82324 -2.11994 -48.4982 -28.21097 -5.82167 76.96047 86.63195 3.17974 0.8407 5.63672 55.86833 -11.83233 47.45594 -90.57625 2.64766 -4.117 107.36277 -12.94813 -9.79538 -82.34359 -13.56339 -2.2188 -3.6291 125.59858 -3.8091 -6.50413 -115.97622 -17.75022 -0.25243 2.57367
-0.18289 -0.57237 0.11282 25.90159 40.77069 -6.75799 -6.94444 2.92045 -11.11109 -44.98783 -10.25621 -2.11994 -47.41371 -28.33101 -5.29198 76.12929 85.22084 1.75617 1.64477 2.94544 55.32234 -9.68581 46.99255 -89.94244 2.37742 -4.27869 107.39591 -12.77263 -9.41328 -82.30737 -13.57613 -2.20876 -3.63073 125.31805 1.52607 -2.30653 -114.44292 -17.94528 -0.10048 2.66046
-0.18261 -0.57228 0.11274 25.71939 40.49859 -6.85336 -6.51807 3.08527 -10.63257 -45.01403 -9.73727 -2.11994 -46.39088 -28.41164 -4.86756 75.41774 83.91099 0.29682 2.34664 0.2168 54.83322 -7.46911 46.54018 -89.2712 2.07927 -4.41552 107.40638 -12.62672 -9.03416 -82.25602 -13.59475 -2.19083 -3.62738 125.04075 6.23413 1.43231 -112.96208 -17.9849 0.15407 2.79451
-0.18233 -0.57217 0.11266 25.51076 40.18291 -6.93515 -6.02905 3.24822 -10.14165 -45.06634 -9.20604 -2.11994 -45.37036 -28.48488 -4.43052 74.74185 82.40741 -1.35883 3.23816 -2.59023 54.36818 -5.15672 46.09019 -88.55879 1.74722 -4.54619 107.44795 -12.47193 -8.61611 -82.22966 -13.59141 -2.1644 -3.61927 124.84247 11.76736 5.72425 -111.50667 -18.06791 0.4274 2.93991
-0.18204 -0.5721 0.11259 25.34424 39.94244 -7.03553 -5.66364 3.40973 -9.65474 -45.06442 -8.67738 -2.11994 -44.31545 -28.5955 -3.96549 73.92702 81.26736 -2.56566 3.77559 -5.20063 53.82118 -3.09558 45.62959 -87.95776 1.5032 -4.70227 107.43516 -12.31937 -8.28145 -82.15792 -13.63218 -2.16048 -3.62402 124.46988 15.81572 9.03853 -109.96995 -18.13713 0.61171 3.03844
-0.18175 -0.57216 0.11256 25.31497 39.94138 -7.20348 -5.65894 3.57426 -9.20129 -44.90943 -8.17241 -2.11994 -43.18965 -28.78373 -3.47981 72.7866 81.2638 -2.52891 3.19068 -7.32104 53.08611 -1.65311 45.15095 -87.63307 1.49909 -4.93117 107.23527 -12.19745 -8.17867 -81.93529 -13.80781 -2.21723 -3.66369 123.6132 15.43462 9.43247 -108.24193 -18.08392 0.61657 3.03827
-0.18144 -0.57226 0.11255 25.32835 40.01586 -7.38991 -5.77796 3.73712 -8.75542 -44.7007 -7.67467 -2.11994 -42.03692 -29.0071 -2.97303 71.51867 81.61332 -2.05404 2.26367 -9.24176 52.27346 -0.46195 44.66219 -87.4182 1.57795 -5.18086 106.98441 -12.0779 -8.15846 -81.66992 -14.02557 -2.29521 -3.71539 122.58591 13.54306 8.82461 -106.43841 -18.00702 0.54299 2.99621
-0.18114 -0.57233 0.11252 25.31638 40.04566 -7.56281 -5.8324 3.89882 -8.30618 -44.51906 -7.17873 -2.11994 -40.90466 -29.21689 -2.47426 70.31766 81.72871 -1.81106 1.57145 -11.23821 51.49432 0.82741 44.17548 -87.15727 1.60846 -5.41035 106.77573 -11.94944 -8.09623 -81.43763 -14.21562 -2.36085 -3.75977 121.64627 12.40647 8.70409 -104.66941 -17.94509 0.50534 2.97352
-0.18085 -0.57243 0.1125 25.32728 40.11648 -7.75598 -5.92027 4.06829 -7.85265 -44.32598 -6.65836 -2.11994 -39.73332 -29.42013 -1.97425 69.06987 82.13888 -1.42597 0.55929 -13.29662 50.71715 2.17848 43.69845 -86.88384 1.68688 -5.68713 106.48874 -11.85002 -8.05189 -81.14876 -14.44156 -2.43838 -3.81228 120.66122 11.01606 8.47531 -102.89206 -17.87652 0.45744 2.94518
-0.18053 -0.57248 0.11248 25.30203 40.12113 -7.912 -5.96925 4.22107 -7.41197 -44.14414 -6.19126 -2.11994 -38.63793 -29.64367 -1.47493 67.89158 82.0358 -1.23207 0.11732 -15.17685 49.91985 3.34253 43.19931 -86.66097 1.68388 -5.86966 106.35133 -11.69398 -7.99173 -80.96691 -14.60303 -2.49624 -3.85075 119.73208 9.78036 8.22241 -101.11931 -17.81202 0.41549 2.92017
-0.18013 -0.57237 0.11243 25.16061 39.92074 -7.95886 -5.87252 4.33109 -6.99789 -44.00506 -5.87564 -2.11994 -37.7674 -29.91847 -0.98158 66.94985 80.29619 -1.70003 1.44865 -16.64083 49.08237 4.06339 42.64147 -86.5523 1.43821 -5.78573 106.64796 -11.35912 -7.85033 -81.0945 -14.57398 -2.49139 -3.84546 118.98961 9.36147 8.16351 -99.35087 -17.76292 0.41227 2.91611
-0.1797 -0.57219 0.11237 24.98264 39.65215 -7.9682 -5.73408 4.42392 -6.59837 -43.87933 -5.61298 -2.11994 -36.97321 -30.21121 -0.49084 66.08156 78.05244 -2.37128 3.34415 -17.92735 48.22888 4.60287 42.06216 -86.48994 1.10709 -5.60591 107.09522 -10.97144 -7.69337 -81.33053 -14.47899 -2.4664 -3.82586 118.31168 9.14218 8.10845 -97.59608 -17.71754 0.41851 2.91719
-0.17928 -0.57204 0.11231 24.82562 39.41768 -7.99628 -5.62014 4.5228 -6.19712 -43.74855 -5.32218 -2.11994 -36.13934 -30.49291 -0.00094 65.172 76.12828 -2.93296 4.9044 -19.27885 47.38561 5.21952 41.49256 -86.40488 0.81277 -5.47074 107.46764 -10.62273 -7.55476 -81.51454 -14.41569 -2.45275 -3.81414 117.61014 8.81316 8.03769 -95.85252 -17.66976 0.41971 2.91553
-0.17887 -0.5719 0.11226 24.65197 39.1728 -8.01798 -5.48695 4.62904 -5.775 -43.61197 -5.04766 -2.11994 -35.32606 -30.78853 0.49778 64.29037 73.83777 -3.55227 6.78302 -20.69194 46.52646 5.85211 40.9217 -86.33069 0.52906 -5.33276 107.86487 -10.21138 -7.37122 -81.70862 -14.3467 -2.43104 -3.79727 116.87689 8.51109 7.99098 -94.02983 -17.6239 0.4211 2.91398
-0.17842 -0.57173 0.11219 24.50345 38.93216 -8.04363 -5.38249 4.71592 -5.40028 -43.49087 -4.75311 -2.11994 -34.4877 -31.05836 0.97794 63.37067 72.18172 -4.10495 8.14033 -21.9341 45.69843 6.40843 40.34986 -86.24345 0.20302 -5.17639 108.24735 -9.91733 -7.27676 -81.90804 -14.27323 -2.42055 -3.78726 116.22922 8.22146 7.9085 -92.37969 -17.57578 0.42543 2.91406
-0.17787 -0.57153 0.11204 24.43555 38.72215 -8.09107 -5.36597 4.7531 -5.14847 -43.41346 -4.37841 -2.11994 -33.56713 -31.25711 1.40111 62.32126 72.43699 -4.43061 7.8924 -22.77383 44.95429 6.82758 39.76996 -86.10788 -0.22878 -5.0029 108.54786 -9.96529 -7.42884 -82.09559 -14.20448 -2.45029 -3.80236 115.78641 7.90894 7.72596 -91.17387 -17.51507 0.43593 2.91701
-0.17727 -0.57132 0.11186 24.39365 38.51805 -8.14339 -5.37963 4.77147 -4.94467 -43.35065 -3.98382 -2.11994 -32.61747 -31.4282 1.80697 61.23327 73.33984 -4.68257 7.10752 -23.44284 44.24378 7.1718 39.19254 -85.95722 -0.69832 -4.81243 108.82922 -10.13207 -7.67091 -82.28484 -14.13326 -2.49114 -3.82432 115.43141 7.61096 7.51232 -90.14725 -17.45307 0.44944 2.9217
-0.17669 -0.57112 0.11169 24.33804 38.30929 -8.19221 -5.37969 4.79876 -4.72179 -43.27864 -3.60626 -2.11994 -31.67791 -31.60887 2.22447 60.1675 73.92058 -4.96686 6.58796 -24.17513 43.52187 7.53293 38.6201 -85.81353 -1.14525 -4.62265 109.12265 -10.24115 -7.87394 -82.47374 -14.06208 -2.5239 -3.84127 115.04722 7.31954 7.31811 -89.05752 -17.39531 0.46173 2.92603
-0.1761 -0.5709 0.11152 24.28882 38.1062 -8.24499 -5.37728 4.82393 -4.48787 -43.21787 -3.19729 -2.11994 -30.75535 -31.80302 2.62496 59.08294 74.60065 -5.26532 5.99675 -24.96546 42.78193 7.96111 38.01827 -85.67096 -1.62024 -4.45824 109.40775 -10.36434 -8.07014 -82.66519 -13.99248 -2.56866 -3.86557 114.61948 6.97913 7.10101 -87.88973 -17.32222 0.47356 2.92868
-0.17554 -0.57071 0.11135 24.23337 37.89403 -8.29135 -5.38849 4.84922 -4.28813 -43.13702 -2.84774 -2.11994 -29.78797 -31.962 3.05805 58.02925 75.23503 -5.51107 5.42143 -25.59168 42.08901 8.23276 37.48213 -85.52195 -2.04201 -4.23942 109.70289 -10.48666 -8.30026 -82.84958 -13.92079 -2.59151 -3.87656 114.30306 6.74107 6.92431 -86.92828 -17.28072 0.48706 2.93518
-0.17512 -0.57058 0.11118 24.15096 37.65169 -8.31756 -5.42335 4.88017 -4.17134 -42.99654 -2.67218 -2.11994 -28.71532 -32.03289 3.57512 57.05459 75.5798 -5.6554 5.00582 -25.84846 41.50729 8.10323 37.09611 -85.35761 -2.3298 -3.8639 110.03663 -10.58107 -8.61844 -83.02013 -13.83614 -2.54962 -3.84766 114.26742 6.78996 6.86843 -86.4814 -17.32679 0.50346 2.95194
-0.17474 -0.57048 0.111 24.06225 37.40106 -8.33761 -5.47243 4.91191 -4.08718 -42.8352 -2.55604 -2.11994 -27.59521 -32.0688 4.12777 56.11489 75.86002 -5.74333 4.62436 -25.93777 40.97385 7.81669 36.78191 -85.18731 -2.55812 -3.43632 110.37919 -10.67022 -8.96488 -83.1818 -13.75121 -2.48572 -3.80547 114.34129 6.93919 6.85439 -86.23798 -17.4047 0.52151 2.97245
-0.17434 -0.57037 0.11083 23.97877 37.1569 -8.36142 -5.51937 4.94284 -3.98781 -42.68404 -2.40896 -2.11994 -26.49004 -32.11918 4.67052 55.16914 76.1751 -5.83905 4.23524 -26.07877 40.42504 7.5954 36.45514 -85.02029 -2.79867 -3.04044 110.71298 -10.75954 -9.28743 -83.34303 -13.67188 -2.43297 -3.77038 114.36828 7.03629 6.8198 -85.90888 -17.46794 0.5395 2.99124
-0.17393 -0.57025 0.11066 23.88596 36.90133 -8.38116 -5.54858 4.97479 -3.89167 -42.53132 -2.27732 -2.11994 -25.41532 -32.17471 5.18511 54.18061 76.48766 -6.00782 3.79653 -26.32202 39.84919 7.3997 36.04395 -84.8503 -3.10314 -2.61136 111.06651 -10.86181 -9.65885 -83.5234 -13.5695 -2.37565 -3.73103 114.38679 7.16097 6.78926 -85.55766 -17.53184 0.55499 3.0103
